<svg xmlns="http://www.w3.org/2000/svg" viewBox="0 0 23.999 24">
  <defs>
    <style>
      .cls-1 {
        fill: #0b1b24;
      }
    </style>
  </defs>
  <path id="instagram" class="cls-1" d="M12.236,24H12c-1.881,0-3.619-.043-5.31-.146A7.1,7.1,0,0,1,2.6,22.306,6.567,6.567,0,0,1,.39,18.743a15.787,15.787,0,0,1-.362-3.77C.015,14.1,0,13.059,0,12s.015-2.1.027-2.975A15.789,15.789,0,0,1,.39,5.259,6.567,6.567,0,0,1,2.6,1.7,7.1,7.1,0,0,1,6.688.148C8.378.045,10.117,0,12,0s3.619.043,5.31.146A7.1,7.1,0,0,1,21.4,1.7,6.566,6.566,0,0,1,23.61,5.259a15.788,15.788,0,0,1,.362,3.77c.012.876.025,1.914.027,2.97v0c0,1.056-.015,2.094-.027,2.97a15.78,15.78,0,0,1-.362,3.77A6.566,6.566,0,0,1,21.4,22.306a7.1,7.1,0,0,1-4.091,1.549c-1.619.1-3.282.146-5.075.146ZM12,22.126c1.851,0,3.55-.042,5.2-.143a5.165,5.165,0,0,0,3.02-1.13,4.734,4.734,0,0,0,1.575-2.573,14.363,14.363,0,0,0,.3-3.332c.012-.87.024-1.9.027-2.947s-.015-2.076-.027-2.947a14.365,14.365,0,0,0-.3-3.332,4.734,4.734,0,0,0-1.575-2.573,5.166,5.166,0,0,0-3.02-1.13c-1.651-.1-3.35-.147-5.2-.143s-3.55.042-5.2.143a5.166,5.166,0,0,0-3.02,1.13A4.734,4.734,0,0,0,2.206,5.723a14.365,14.365,0,0,0-.3,3.332c-.012.871-.024,1.9-.027,2.949s.015,2.073.027,2.945a14.363,14.363,0,0,0,.3,3.332,4.734,4.734,0,0,0,1.575,2.573,5.166,5.166,0,0,0,3.02,1.13C8.452,22.084,10.152,22.131,12,22.126Zm-.045-4.265A5.859,5.859,0,1,1,17.812,12,5.866,5.866,0,0,1,11.953,17.861Zm0-9.844A3.984,3.984,0,1,0,15.937,12,3.989,3.989,0,0,0,11.953,8.017Zm6.516-3.75a1.406,1.406,0,1,0,1.406,1.406A1.406,1.406,0,0,0,18.468,4.267Zm0,0" transform="translate(0 -0.001)"/>
</svg>
