<svg xmlns="http://www.w3.org/2000/svg" viewBox="0 0 25.116 24">
  <defs>
    <style>
      .cls-1 {
        fill: #0b1b24;
      }
    </style>
  </defs>
  <g id="linkedin" transform="translate(0 -9.558)">
    <path id="LinkedIn-2" data-name="LinkedIn" class="cls-1" d="M25.116,24.272v9.286H19.733V24.894c0-2.176-.779-3.662-2.727-3.662A2.946,2.946,0,0,0,14.244,23.2a3.684,3.684,0,0,0-.179,1.313v9.044H8.68s.073-14.674,0-16.194h5.384v2.3c-.011.017-.025.036-.035.052h.035V19.66a5.347,5.347,0,0,1,4.853-2.676C22.46,16.984,25.116,19.3,25.116,24.272ZM3.047,9.558a2.806,2.806,0,1,0-.071,5.6h.036a2.807,2.807,0,1,0,.036-5.6Zm-2.727,24H5.7V17.364H.32Z" transform="translate(0 0)"/>
  </g>
</svg>
