<svg xmlns="http://www.w3.org/2000/svg" viewBox="0 0 24 24">
  <defs>
    <style>
      .cls-1 {
        fill: #0b1b24;
      }
    </style>
  </defs>
  <g id="skype" transform="translate(-0.004)">
    <path id="Path_15" data-name="Path 15" class="cls-1" d="M22.754,14.344A11.533,11.533,0,0,0,23,12a10.805,10.805,0,0,0-.867-4.273,10.774,10.774,0,0,0-5.859-5.859A10.814,10.814,0,0,0,12,1a11.506,11.506,0,0,0-2.344.25A5.845,5.845,0,0,0,6,0,5.781,5.781,0,0,0,1.762,1.758,5.781,5.781,0,0,0,0,6a5.845,5.845,0,0,0,1.25,3.656A11.513,11.513,0,0,0,1,12a10.81,10.81,0,0,0,.867,4.273A10.772,10.772,0,0,0,7.73,22.133,10.809,10.809,0,0,0,12,23a11.513,11.513,0,0,0,2.344-.25A5.843,5.843,0,0,0,18,24a6,6,0,0,0,6-6A5.849,5.849,0,0,0,22.754,14.344Zm-4.938,2.32a4.047,4.047,0,0,1-1.383,1.461,7.123,7.123,0,0,1-1.914.836,8.188,8.188,0,0,1-2.188.289,9.483,9.483,0,0,1-4.547-1.024Q5.879,17.2,5.879,15.765a1.747,1.747,0,0,1,.4-1.172,1.461,1.461,0,0,1,1.18-.469,1.537,1.537,0,0,1,.844.25,3.742,3.742,0,0,1,.719.6q.328.352.711.7a3.251,3.251,0,0,0,1.015.6,3.865,3.865,0,0,0,1.43.25,3.015,3.015,0,0,0,1.641-.4,1.172,1.172,0,0,0,.625-1.008,1.033,1.033,0,0,0-.5-.938,7.518,7.518,0,0,0-1.75-.563L9.91,13.062A9.666,9.666,0,0,1,8.3,12.555a5.3,5.3,0,0,1-1.25-.758,2.959,2.959,0,0,1-.875-1.18,4.3,4.3,0,0,1-.3-1.664A3.756,3.756,0,0,1,7.793,5.586,7.187,7.187,0,0,1,9.66,4.852a8.727,8.727,0,0,1,2.062-.242,10.966,10.966,0,0,1,2.844.359,6.021,6.021,0,0,1,2.219,1.055,1.983,1.983,0,0,1,.875,1.555,1.745,1.745,0,0,1-.445,1.2,1.5,1.5,0,0,1-1.179.5,1.541,1.541,0,0,1-.75-.188,3,3,0,0,1-.625-.453q-.281-.265-.594-.523a2.774,2.774,0,0,0-.843-.445,3.6,3.6,0,0,0-1.2-.188q-2.25,0-2.25,1.2a.922.922,0,0,0,.117.469,1.313,1.313,0,0,0,.258.328,1.566,1.566,0,0,0,.469.25,4.952,4.952,0,0,0,.547.18q.219.055.687.164l1.625.375q.765.172,1.367.359a8.7,8.7,0,0,1,1.289.531,4.831,4.831,0,0,1,1.14.766,3.443,3.443,0,0,1,.758,1.07,3.319,3.319,0,0,1,.3,1.43A4.1,4.1,0,0,1,17.816,16.664Z"/>
  </g>
</svg>
