<svg xmlns="http://www.w3.org/2000/svg" viewBox="0 0 29.546 24">
  <defs>
    <style>
      .cls-1 {
        fill: #0b1b24;
      }
    </style>
  </defs>
  <g id="twitter" transform="translate(-0.001 -57.441)">
    <g id="Group_1" data-name="Group 1" transform="translate(0.001 57.441)">
      <path id="Path_1" data-name="Path 1" class="cls-1" d="M29.547,60.281a12.1,12.1,0,0,1-3.48.955,6.086,6.086,0,0,0,2.664-3.351,12.219,12.219,0,0,1-3.851,1.472,6.066,6.066,0,0,0-10.328,5.526A17.208,17.208,0,0,1,2.06,58.549a6.068,6.068,0,0,0,1.876,8.09,6.061,6.061,0,0,1-2.745-.761v.076A6.067,6.067,0,0,0,6.051,71.9a6.14,6.14,0,0,1-1.6.212A5.817,5.817,0,0,1,3.313,72a6.064,6.064,0,0,0,5.661,4.21A12.161,12.161,0,0,1,1.447,78.8,12.883,12.883,0,0,1,0,78.714a17.133,17.133,0,0,0,9.291,2.727c11.15,0,17.244-9.235,17.244-17.244l-.02-.785A12.1,12.1,0,0,0,29.547,60.281Z" transform="translate(-0.001 -57.441)"/>
    </g>
  </g>
</svg>
